<?xml version="1.0" encoding="UTF-8" standalone="no"?>
<!-- Created with Inkscape (http://www.inkscape.org/) -->

<svg
   xmlns:dc="http://purl.org/dc/elements/1.1/"
   xmlns:cc="http://creativecommons.org/ns#"
   xmlns:rdf="http://www.w3.org/1999/02/22-rdf-syntax-ns#"
   xmlns:svg="http://www.w3.org/2000/svg"
   xmlns="http://www.w3.org/2000/svg"
   xmlns:sodipodi="http://sodipodi.sourceforge.net/DTD/sodipodi-0.dtd"
   xmlns:inkscape="http://www.inkscape.org/namespaces/inkscape"
   width="168.51062mm"
   height="171.84229mm"
   viewBox="0 0 597.08487 608.88998"
   id="svg4260"
   version="1.1"
   inkscape:version="0.91 r13725"
   inkscape:export-filename="/home/zaqueo/logo-circle-guillecro.png"
   inkscape:export-xdpi="300.0542"
   inkscape:export-ydpi="300.0542"
   sodipodi:docname="guillecro-circle-logo.svg">
  <defs
     id="defs4262" />
  <sodipodi:namedview
     id="base"
     pagecolor="#ffffff"
     bordercolor="#666666"
     borderopacity="1.0"
     inkscape:pageopacity="0.0"
     inkscape:pageshadow="2"
     inkscape:zoom="0.85585937"
     inkscape:cx="288.49457"
     inkscape:cy="337.45922"
     inkscape:document-units="px"
     inkscape:current-layer="layer3"
     showgrid="false"
     fit-margin-top="0"
     fit-margin-left="0"
     fit-margin-right="0"
     fit-margin-bottom="0"
     inkscape:window-width="1366"
     inkscape:window-height="747"
     inkscape:window-x="0"
     inkscape:window-y="21"
     inkscape:window-maximized="1" />
  <metadata
     id="metadata4265">
    <rdf:RDF>
      <cc:Work
         rdf:about="">
        <dc:format>image/svg+xml</dc:format>
        <dc:type
           rdf:resource="http://purl.org/dc/dcmitype/StillImage" />
        <dc:title></dc:title>
      </cc:Work>
    </rdf:RDF>
  </metadata>
  <g
     inkscape:groupmode="layer"
     id="layer3"
     inkscape:label="Layer 3"
     style="display:inline;opacity:1"
     transform="translate(-115.95929,-268.02651)" />
  <g
     inkscape:groupmode="layer"
     id="layer2"
     inkscape:label="Layer 2"
     transform="translate(-115.95929,-268.02651)">
    <circle
       style="opacity:1;fill:#ffffff;fill-opacity:1;stroke:none;stroke-width:28.77000046;stroke-linecap:butt;stroke-linejoin:miter;stroke-miterlimit:4;stroke-dasharray:none;stroke-opacity:1"
       id="path4824"
       cx="414.20355"
       cy="576.2326"
       r="290.35144" />
    <path
       style="fill:#ffffff;fill-opacity:1;fill-rule:evenodd;stroke:none;stroke-width:1px;stroke-linecap:butt;stroke-linejoin:miter;stroke-opacity:1"
       d="m 206.80968,388.70178 -18.69466,-54.91557 10.58489,-37.39248 26.02514,-23.54656 25.19895,2.47859 42.54905,39.24426 239.18347,2.47859 20.65487,-19.00249 21.06798,-9.91434 14.87151,2.89168 10.32744,12.39293 4.54407,21.06797 -1.65239,33.4609 -172.26167,-2.89168 z"
       id="path4826"
       inkscape:connector-curvature="0" />
  </g>
  <g
     inkscape:label="Layer 1"
     inkscape:groupmode="layer"
     id="layer1"
     style="display:inline"
     sodipodi:insensitive="true"
     transform="translate(-115.95929,-268.02651)">
    <path
       inkscape:connector-curvature="0"
       id="path40"
       style="fill:#000000;fill-opacity:1;fill-rule:nonzero;stroke:none"
       d="m 287.77919,824.04401 c 13.0475,-2.4975 26.6475,-7.355 38.3325,-9.4 15.69,-2.735 30.4575,-8.3425 45.96,-11.2875 19.9275,-3.7875 41.7825,-18.0625 53.615,-34.5675 0.0624,-0.08 0.12,-0.16 0.175,-0.2425 5.045,-7.1825 7.895,-17.7325 8.2975,-26.2875 -0.555,11.915 2.055,23.9575 0.1974,35.8175 -1.2425,7.94 -5.59,18.325 -11.025,24.2925 -2.91,3.1975 -5.2925,7.595 -8.9725,9.9925 -3.6025,2.35 -7.505,4.0525 -11.2025,6.5475 -8.0325,5.41 -17.3075,9.4625 -25.855,13.4 -10.87,5.015 -21.5975,10.065 -33.0025,13.495 -19.79,-5.2 -38.715,-12.54 -56.52,-21.76 z m -97.695,-84.3825 c -3.625,-15.1075 -10.34,-25.7325 -18.5625,-38.7125 l -3.425,-5.4125 -2.9,2.2825 c -15.4625,-32.14 -24.89,-67.71 -26.8,-105.23 0.165,-3.52 0.3575,-7.0625 0.62,-10.6525 2.535,-34.785 21.805,-59.13 42.1975,-84.9075 3.3575,-4.2375 6.74,-8.515 10.09,-12.88 3.9425,-5.1475 8.6325,-9.945 13.165,-14.5825 5.5775,-5.7025 11.32,-11.615 16.05,-18.4425 1.515,9.5775 -0.3075,20.74 -0.8775,30.44 -0.65,11.1075 -4.1175,21.6475 -5.86,32.735 -3.3075,21.0625 -6.66,41.7 -5.06,63.5175 0.9875,-5.975 3.4325,-19.265 8.935,-22.485 -1.995,1.1675 4.475,21.115 4.7675,24.4075 1.015,11.435 -5.0825,22.2175 -4.7,33.7175 0.51,15.2575 5.46,28.655 11.2725,42.4375 6.28,14.885 11.305,29.7875 17.7675,44.59 3.325,7.62 7.27,15.595 8.6475,23.7325 1.32,7.7625 -0.3675,16.0175 1.775,23.4125 8.3225,-5.73 17.62,-20.545 17.2675,-31.4275 14.24,4.8525 17.16,46.2775 17.12,59.3575 -0.0476,18.9075 -4.075,30.765 -15.285,42.185 -33.9525,-19.6825 -63.3525,-46.375 -86.205,-78.0825 z m 19.05,-333.465 c 1.005,2.4275 2.065,4.785 3.1125,7.1225 2.69,5.99 5.225,11.6525 6.7025,17.9825 1.2625,5.435 -0.315,8.9925 -4.3375,14.915 -4.4325,6.5275 -9.87,12.095 -15.63,17.9875 -4.6925,4.8 -9.5375,9.765 -13.765,15.275 -3.3275,4.3375 -6.685,8.5825 -10.02,12.79 -13.715,17.335 -26.9425,34.0575 -35.2775,53.8025 6.59,-56.3575 30.19,-107.5925 65.5225,-148.4125 1.265,2.86 2.52,5.7125 3.6925,8.5375 z m -13.995,-73.27 c -0.12,-6.32 -0.255,-13.475 1.795,-18.8575 2.5975,-6.83 6.5925,-14.0625 10.465,-20.8825 6.7625,-11.93 14.405,-17.485 24.0275,-17.485 5.9525,0 12.725,2.105 20.7,6.44 8.28,4.5025 15.0675,11.7125 21.6325,18.68 1.2175,1.2925 2.43,2.5775 3.655,3.8475 l 2.7625,2.87 c 0.9025,0.94 1.8,1.875 2.695,2.805 -0.2625,0.125 -0.525,0.25 -0.7875,0.38 -4.1725,-2.9775 -8.16,-5.9825 -11.915,-8.8325 -14.3475,-10.865 -40.9475,-25.2425 -53.7275,-4.605 -7.505,12.1275 -8.355,30.6475 -5.735,44.36 5.7775,30.1775 17.4125,59.03 16.5125,90.2175 -0.025,0.76 -0.0924,1.485 -0.195,2.185 -0.05,-1.4225 -0.235,-2.9075 -0.6025,-4.4875 -1.6475,-7.0575 -4.4575,-13.325 -7.1775,-19.385 -1.0175,-2.27 -2.045,-4.5625 -3.0275,-6.925 -1.435,-3.46 -3.0075,-7.0025 -4.515,-10.425 -3.7775,-8.5325 -7.6775,-17.3525 -10.055,-25.8975 -0.4975,-1.8025 -1.0125,-3.585 -1.52,-5.345 -2.4925,-8.6075 -4.8475,-16.7375 -4.945,-25.715 -0.008,-0.9575 -0.025,-1.9425 -0.0426,-2.9425 z m 219.3625,-31.02 c 37.4525,0 73.1825,7.4925 105.7875,21.0425 -2.3975,2.8 -4.6925,5.8575 -6.8625,9.3125 -1.2,1.9075 -2.2175,3.72 -3.1175,5.32 -3.4175,6.0975 -4.6875,8.0275 -8.54,8.0275 -1.1475,0 -2.5375,-0.185 -4.1225,-0.5625 -45.1975,-10.565 -95.135,-15.49 -157.16,-15.49 -3.7525,0 -7.715,0.4725 -11.5525,0.9275 -3.9225,0.4675 -8.03,0.8825 -11.5975,0.8575 -0.68,-0.2125 -1.325,-0.455 -1.905,-0.7575 -0.9125,-0.47 -1.87,-1.305 -2.8425,-2.31 -1.815,-0.7175 -3.615,-1.5075 -5.4,-2.345 -0.4675,-0.5825 -0.9425,-1.1475 -1.415,-1.7225 33.3875,-14.34 70.145,-22.3 108.7275,-22.3 z m 129.3825,9.585 c 9.315,-7.6925 23.3975,-19.3075 34.325,-19.3075 6.3725,0 11.2325,4.145 14.8575,12.6825 8.46,19.9325 4.09,52.92 0.74,70.815 -1.1375,6.0575 -2.63,12.115 -4.0675,17.9725 -1.1925,4.8275 -2.4225,9.8225 -3.4575,14.8225 -0.5375,2.595 -1.7325,5.3425 -3.0175,8.2425 -0.0774,-12.38 1.015,-24.7575 2.9575,-36.98 1.555,-9.755 2.375,-19.44 4.2875,-29.0825 2.1675,-10.91 2.37,-25.265 0.29,-36.1275 -1.14,-5.955 -2.8525,-14.7525 -9.9675,-15.345 -7.455,-0.62 -14.3175,2.6725 -20.02,7.195 -16.1125,12.78 -28.545,29.545 -45.7925,40.9075 -1.0075,0.6675 -2.0125,1.1825 -3.005,1.5825 1.9425,-2.12 3.4525,-4.79 4.99,-7.53 0.8925,-1.6 1.8175,-3.2475 2.915,-4.995 6.1725,-9.825 13.005,-15.8075 23.5275,-24.495 l 0.4375,-0.3575 z m 3.8225,208.925 c -0.7525,-1.0575 -1.695,-2.3975 -2.7425,-3.07 -1.3875,-0.885 -2.5875,-0.49 -3.995,-0.9875 1.1425,-3.315 7.46,-3.905 10.21,-2.7825 0.565,0.23 12.0025,9.0575 12.1275,7.395 -0.185,2.4175 -3.04,2.465 -4.6225,4.36 -1.5625,1.87 -1.7625,3.8275 -2.495,6.135 -1.68,5.295 -2.8325,10.57 -9.015,11.86 -0.8,0.1674 -1.64,0.23 -2.495,0.215 -2.51,-0.0476 -5.1375,-0.815 -7.235,-1.8725 -2.9775,-1.5025 -4.62,-5.9175 -8.2375,-6.3925 -2.4575,-0.3225 -4.7375,1.5275 -5.5525,3.7825 1.52,-4.195 4.26,-9.0675 8.8525,-10.465 0.43,1.0375 0.775,2.465 1.485,3.33 1.2825,1.57 3.785,2.2725 5.715,2.23 4.01,-0.09 7.1275,-2.2775 8.845,-5.885 1.3225,-2.7825 0.8925,-5.415 -0.845,-7.8525 z m 20.045,-83.5425 c 19.8825,23.415 40.635,47.6775 48.74,78.2375 1.515,5.71 3.4475,12.26 3.97,17.8975 0.02,0.2475 0.0376,0.4875 0.0476,0.74 0.3225,6.0025 -2.1175,11.7 -1.5025,17.435 -3.3075,-7.635 -5.015,-17.135 -12,-24.0375 -3.0725,-3.04 -6.6775,-5.7475 -10.0575,-8.19 -3.7925,-2.7475 -7.57,-6.5475 -11.3875,-9.135 -7.5626,-5.1225 -16.2426,-8.785 -24.0726,-13.845 -6.505,-4.2025 -13.7825,-6.6325 -21.43,-7.63 -4.5525,-0.6 -12.765,-4.3875 -16.605,-0.85 2.1,-1.9325 1.475,-7.3625 1.44,-9.8625 -0.0476,-3.5225 0.205,-7.05 -0.0724,-10.565 -2.09,4.6275 -5.1275,9.0275 -8.0475,13.185 -1.3275,1.8925 -2.58,3.885 -4.195,5.5825 -1.955,2.06 -3.2225,3.235 -4.3225,5.87 -1.175,2.7975 -2.565,5.595 -4.4025,8.0125 -2.0675,2.7225 -4.2325,8.415 -6.825,10.1425 -1.53,-4.4525 -0.6875,-11.4775 -1.19,-16.225 -0.6275,-5.95 -2.15,-11.52 -4.29,-17.0375 -1.2975,-3.3475 -1.9225,-6.8425 -2.8225,-10.3 -1.4775,-5.6825 -2.49,-11.2675 -3.1775,-17.095 -0.2125,-1.78 -1.6375,-5.7825 -0.9825,-7.425 0.91,-2.2875 6.29,-3.935 8.38,-4.8125 2.82,-1.18 4.975,-2.7175 7.3975,-4.5475 2.4575,-1.86 5.76,-3.63 7.675,-6.2 -2.855,0.1874 -5.2975,1.1 -8.07,1.9625 -5.5625,1.73 -16.245,3.435 -19.1025,-3.42 -1.865,-4.49 -3.1975,-9.4125 -4.4925,-14.205 -2.265,-8.41 -1.5575,-16.5825 -2.855,-25.0525 -1.035,-6.8 -1.695,-13.3075 -1.6125,-20.4575 0.095,-8.255 5.8925,-14.3325 14.48,-10.09 8.7925,4.3475 16.2275,11.585 25.135,15.825 14.2975,6.8025 25.225,24.455 34.78,36.555 7.535,9.5425 13.62,20.305 21.47,29.5375 z m -224.23,144.1825 c 21.73,-2.7925 41.325,7.2925 63.9425,3.01 15.0475,-2.85 29.06,-8.9575 41.5575,-17.78 6.5075,-4.5975 12.5375,-9.7875 18.3475,-15.235 5.7825,-5.415 8.4975,-12.6225 13.8925,-18.1375 7.1825,10.6375 10.0625,22.41 10.665,35.46 0.2725,5.8025 2.3075,12.195 -1.3425,17.41 -2.8875,4.1375 -8.14,5.3125 -11.9,8.375 -4.3325,3.525 -7.765,8.5275 -8.2325,14.1325 -0.515,6.1675 1.05,13.01 2.86,18.6675 1.5975,4.9775 7.05,9.175 11.53,11.395 3.77,1.865 9.315,2.37 13.4175,1.87 -8.665,7.6075 -23.6225,8.315 -34.4475,7.585 -9.7625,-0.6575 -19.9125,-1.1525 -29.505,-3.1525 -4.945,-1.0275 -9.6475,-3.165 -14.7975,-2.8575 4.1975,3.1375 7.74,5.7425 12.895,7.5 14.2525,4.85 29.3025,6.06 44.2675,5.8325 13.1325,-0.1974 27.845,-3.0225 36.06,-14.3475 0.215,-0.2925 0.5675,-1.145 0.8625,-1.3 0.5975,-0.3175 1.965,0.0674 2.61,0.1026 6.0775,0.315 14.4475,-1.7875 18.075,-7.065 3.2625,-4.7375 4.8875,-10.335 5.4025,-16.0225 0.63,-6.895 0.8775,-23.4125 -6.4425,-27.5225 -2.32,-1.305 -5.15,-1.7125 -7.6825,-2.55 -3.5475,-1.17 -6.7175,-1.3875 -8.1225,-5.255 -1.5625,-4.285 -2.6725,-8.895 -3.945,-13.29 -1.04,-3.5775 -1.075,-8.255 -1.8025,-12 -1.5275,-7.815 -2.5025,-15.675 -2.49,-23.815 -0.014,10.2375 12.2725,23.775 21.5425,26.8425 2.335,0.775 4.81,0.9375 7.315,0.8325 3.25,-0.1424 6.025,-2.075 9.0875,-1.835 -3.18,4.465 -10.7625,6.705 -12.95,12.37 -3.2225,8.3425 4.3075,20.915 6.9775,28.5325 2.285,6.515 2.0425,14.025 1.71,21.04 -0.0576,1.185 -0.2175,2.3925 -0.4775,3.6075 -0.8775,4.1625 -2.85,8.365 -5.305,11.59 -1.86,2.4525 -3.975,5.79 -6.6325,7.44 -3.6625,2.28 -6.365,2.24 -9.335,5.66 -4.4175,5.0875 -10.395,7.9275 -15.955,11.43 -3.955,2.4825 -7.745,4.19 -12.27,5.355 -12.92,3.3175 -25.1975,2.82 -38.475,2.71 -22.5275,-0.1874 -45.325,-7.5725 -66.91,-14.0125 -5.775,-1.72 -11.2125,-4.645 -16.8,-6.7025 -24.845,-9.1475 -50.045,-14.005 -58.0425,-43.9575 -4.7275,-17.7125 18.835,-20.3675 30.845,-21.9125 z m 10.475,-80.7125 c 2.93,-1.23 5.9075,-2.395 9.125,-2.9425 3.8275,-0.655 7.78,-0.8 11.715,-0.6225 3.3875,0.15 6.7625,0.545 10.0525,1.065 0.1176,0.2625 0.1176,0.525 0,0.78 -4.945,2.1575 -6.145,7.8875 -5.405,12.91 1.315,8.87 13.81,13.565 21.1425,8.89 4.075,-2.595 9.6825,-10.2225 5.07,-14.6 7.4775,5.7325 16.0975,10.715 21.565,18.605 1.675,2.4175 3.1125,5.5675 4.2975,8.2125 1.1525,2.5775 1.3525,5.35 2.3175,7.87 -2.2225,0.18 -2.99,-2.0075 -4.1,-3.48 -1.3025,-1.7375 -3.3675,-3.41 -5.2925,-4.5075 -4.4875,-2.5625 -9.8925,-2.4525 -15.1,-2.5125 -4.685,-0.055 -9.685,-0.3 -14.5875,-1.0075 -11.0925,-1.6025 -29.6325,-8.1575 -29.3725,-22.2475 0.0526,-2.4725 1.3075,-4.0475 1.55,-6.1125 -3.105,-0.63 -8.505,-1.0325 -12.9775,-0.3 z m -119.1,-17.7975 c 0.0376,-11.41 0.59,-22.3675 4.405,-33.0975 1.6375,-4.61 3.905,-10.255 6.99,-14.0125 7.1475,-8.725 19.99,-14.17 28.7675,-21.2225 17.7575,-14.2775 31.97,-31.605 46.7425,-48.805 16.56,-19.2875 47.055,-22.3425 70.7625,-18.7875 5.7875,0.87 14.215,0.95 19.1,4.1825 9.1225,6.035 16.4875,18.35 22.62,27.1725 3.4325,4.9375 6.2025,10.2825 8.535,15.8125 1.7775,4.2325 2.8225,8.825 5.13,12.775 2.3375,3.995 4.275,8.375 5.475,12.91 0.5925,2.23 1.53,4.48 1.9075,6.7225 0.3825,2.305 0.3925,5.0125 1.645,7.125 -1.1,-1.8575 -1.0075,-2.3825 -3.2775,-3.08 -2.1725,-0.675 -4.9325,-1.4025 -7.235,-1.4175 -5.115,-0.0374 -10.43,-0.3475 -15.505,0.0476 3.695,2.6775 8.36,3.425 12.34,6.1275 4.7625,3.23 9.6875,6.1675 13.7825,10.2225 5.9175,5.86 5.4975,13.145 6.12,20.7375 0.6675,8.1725 1.5575,16.385 1.5575,24.635 l 0,12.59 c 0,3.64 0.8425,8.565 -0.64,12 -1.6275,-2.6675 -2.825,-6.6575 -3.8825,-9.555 -0.97,-2.6725 -2.295,-4.7675 -3.805,-7.34 -2.7625,-4.68 -5.8425,-8.3075 -10.2375,-11.685 -6.48,-4.9875 -13.08,-11.7675 -17.525,-18.645 -0.9725,-1.4975 -2.97,-7.195 -4.7,-7.4525 -0.33,5.9875 0.6025,12.9475 2.815,18.3975 -2.195,-0.5375 -4.7025,0.02 -7.0025,-0.19 -2.945,-0.265 -5.62,-0.74 -8.7,-0.74 -2.1075,0 -4.2725,0.065 -6.335,-0.2175 -11.415,-1.5875 -23.7225,2.2775 -35.3725,2.7825 -12.3575,0.535 -25.1775,2.57 -37.37,4.755 -13.9375,2.4975 -26.7825,12.7175 -39.6875,18.2825 -6.085,2.625 -12.255,5.03 -18.4775,7.33 -3.675,1.3625 -7.3625,2.6825 -11.06,3.99 -1.97,0.695 -25.945,7.5525 -26.0525,8.35 0.89,-6.445 4.0225,-12.275 5.615,-18.54 0.775,-3.0325 2.9425,-32.3775 5.5275,-33.0175 -4.26,1.0575 -12.375,5.5725 -12.9725,10.8575 z m 456.07,95.825 c 0,147.65 -116.3475,268.64 -262.18,276.1025 30.41,-10.1125 60.9475,-22.77 82.7725,-43.07 5.06,-4.71 24.4125,-37.3025 26.6075,-41.005 11.2275,-18.9875 16.5525,-28.9375 19.02,-34.345 1.275,2.16 1.9425,5.475 2.655,9.6675 0.58,3.355 1.175,6.8225 2.4975,9.61 l 2.02,4.25 3.7575,-2.8325 c 12.195,-9.205 12.635,-27.9575 13.02,-44.495 0.135,-5.8875 0.2625,-11.45 0.95,-15.77 0.1924,-1.205 0.38,-2.4675 0.5675,-3.77 1.025,-7.02 2.31,-15.7525 5.76,-20.4625 1.6225,-2.21 3.2325,-4.3875 4.8175,-6.54 22.7175,-30.7875 42.335,-57.375 46.9675,-98.695 5.135,-45.7525 -8.5625,-75.6975 -35.6475,-114.9575 -1.9475,-2.8175 -4.97,-5.725 -8.1775,-8.8 -3.6825,-3.535 -7.8575,-7.545 -8.995,-10.3825 -1.37,-3.4 0.66,-7.9825 2.8075,-12.8375 1.425,-3.2175 2.8975,-6.545 3.6125,-10.0025 1.0025,-4.8675 2.215,-9.79 3.3875,-14.5525 1.4675,-5.9575 2.985,-12.1175 4.1625,-18.39 0.1176,-0.6375 0.24,-1.2925 0.36,-1.965 54.84,50.5525 89.2575,122.9475 89.2575,203.2425 z m -160.2575,275.08 c 35.555,-15.0375 67.48,-36.5625 94.8925,-63.9775 27.4175,-27.415 48.9375,-59.3375 63.98,-94.89 15.5675,-36.8175 23.4625,-75.9125 23.4625,-116.2125 0,-40.295 -7.895,-79.395 -23.4625,-116.21 -15.0425,-35.555 -36.5625,-67.4775 -63.98,-94.89 -6.5725,-6.575 -13.405,-12.8 -20.4875,-18.6825 1.15,-16.0775 0.5375,-33.7025 -4.985,-46.7175 -4.89,-11.5225 -12.27,-17.3625 -21.92,-17.3625 -13.685,0 -28.4375,12.1725 -39.2075,21.0625 l -0.4325,0.36 c -0.2225,0.18 -0.4425,0.3625 -0.6625,0.5475 -2.3825,-1.0925 -4.775,-2.1625 -7.1975,-3.185 -36.81,-15.57 -75.91,-23.465 -116.2075,-23.465 -40.2975,0 -79.3975,7.895 -116.2075,23.465 -2.73,1.155 -5.43,2.3575 -8.1125,3.59 -1.48,-1.55 -2.9675,-3.1 -4.4825,-4.6675 l -2.7575,-2.865 c -1.2,-1.2525 -2.3975,-2.5175 -3.6,-3.7925 -6.975,-7.4075 -14.1925,-15.0675 -23.5475,-20.155 -9.1325,-4.9675 -17.1,-7.3775 -24.3675,-7.3775 -12.5025,0 -22.545,6.99 -30.705,21.3725 -4.015,7.08 -8.175,14.605 -10.96,21.9375 -2.5725,6.7725 -2.4275,14.7225 -2.2975,21.735 0.0226,0.98 0.04,1.94 0.0476,2.88 0.1126,10.0275 2.6025,18.6425 5.245,27.7625 0.5025,1.74 1.0075,3.4925 1.5025,5.27 0.545,1.9625 1.1725,3.925 1.8375,5.885 -23.945,25.6625 -43.005,54.9675 -56.67,87.2925 -15.5725,36.8125 -23.4675,75.9125 -23.4675,116.21 0,40.3 7.895,79.4 23.4675,116.2125 15.0375,35.5525 36.5575,67.475 63.9725,94.89 27.4175,27.415 59.3425,48.94 94.895,63.9775 36.81,15.565 75.9125,23.465 116.2075,23.465 40.295,0 79.3975,-7.9 116.2075,-23.465" />
  </g>
</svg>
